<svg id="Layer_2" data-name="Layer 2" xmlns="http://www.w3.org/2000/svg" viewBox="0 0 175.09 176"><defs><style>.cls-1{fill:#2d8bce;}.cls-2{fill:#dbe0e4;}.cls-3{fill:#56a3e1;}.cls-4{fill:#8acaf6;}.cls-5{fill:#414042;}.cls-6{fill:#fff;}.cls-7{fill:#56b88e;}.cls-8{fill:#85d7a8;}.cls-9{fill:#ade4f6;}.cls-10{fill:#fff07a;}.cls-11{fill:#b1816f;}.cls-12{fill:#fd928b;}</style></defs><title>Trim_Logo</title><circle class="cls-1" cx="88.26" cy="88.23" r="83.85"/><ellipse class="cls-2" cx="93.05" cy="87.33" rx="50.58" ry="5.76"/><path class="cls-2" d="M26.38,144.8a31.3,31.3,0,0,1,11.51-2.19v-23a54.14,54.14,0,0,0-24.69,5.93A84,84,0,0,0,26.38,144.8Z"/><path class="cls-3" d="M139.33,154.72a84.3,84.3,0,0,0,17.07-17.65V81.25L139.33,97.67Z"/><path class="cls-4" d="M31.46,149.9a83.79,83.79,0,0,0,107.87,4.82v-57H31.46Z"/><path class="cls-2" d="M143.58,76A50.56,50.56,0,0,0,42.51,76h0V87.62l101.15.26V76Z"/><path class="cls-5" d="M98.9,83a3.68,3.68,0,0,1-3.68,3.69h0A3.69,3.69,0,0,1,91.53,83V71.79a3.68,3.68,0,0,1,3.69-3.68h0a3.68,3.68,0,0,1,3.68,3.68Z"/><circle class="cls-6" cx="95.78" cy="71.34" r="2.89"/><path class="cls-5" d="M78.8,83a3.69,3.69,0,0,1-3.69,3.69h0A3.69,3.69,0,0,1,71.43,83V71.79a3.68,3.68,0,0,1,3.68-3.68h0a3.69,3.69,0,0,1,3.69,3.68Z"/><circle class="cls-6" cx="75.68" cy="71.34" r="2.89"/><rect class="cls-7" x="52.58" y="37.66" width="89.26" height="9.83"/><polygon class="cls-8" points="13.22 62.05 141.73 62.05 141.73 47.5 52.15 47.5 13.22 62.05"/><rect class="cls-3" x="43.25" y="107.81" width="84.82" height="24.78"/><rect class="cls-1" x="43.25" y="107.81" width="84.82" height="3.22"/><path class="cls-2" d="M148.6,121.15v23c.71,0,1.41,0,2.1.08a83.94,83.94,0,0,0,13.64-20.71A54.29,54.29,0,0,0,148.6,121.15Z"/><polygon class="cls-9" points="43.25 132.59 43.25 107.81 46.6 111.03 46.6 132.59 43.25 132.59"/><ellipse class="cls-2" cx="148.6" cy="132.59" rx="3.12" ry="11.44"/><rect class="cls-10" x="122.31" y="14.19" width="11.87" height="61.37" transform="translate(5.83 103.83) rotate(-45)"/><polygon class="cls-11" points="110.74 18.98 102.35 27.38 98.42 14.53 110.74 18.98"/><path class="cls-12" d="M154.14,62.38l3.32,3.32a2.08,2.08,0,0,1,0,2.95L152,74.09a2.08,2.08,0,0,1-3,0l-3.32-3.32Z"/><rect class="cls-7" x="142.35" y="62.57" width="11.87" height="4.69" transform="translate(-2.5 123.8) rotate(-44.98)"/><polygon class="cls-5" points="99.87 19.28 98.42 14.53 102.98 16.18 99.87 19.28"/><circle class="cls-6" cx="54.84" cy="148.05" r="9.39"/><circle class="cls-6" cx="85.54" cy="148.05" r="9.39"/><path class="cls-6" d="M63.16,168.25a9.36,9.36,0,0,0-11.4-4.52A83,83,0,0,0,63.16,168.25Z"/><path class="cls-6" d="M88.26,172.08c2.23,0,4.44-.11,6.63-.29a9.38,9.38,0,0,0-18.63-.58A84.55,84.55,0,0,0,88.26,172.08Z"/><path class="cls-6" d="M103.82,165.77l3,4.23a83.12,83.12,0,0,0,13.38-4.23Z"/><polygon class="cls-6" points="114.76 140.84 103.82 156.18 125.7 156.18 114.76 140.84"/></svg>